<svg width="1080" height="1080" version="1.1" xmlns="http://www.w3.org/2000/svg" desc="Created with imagetracer.js version 1.2.6" ><path fill="rgb(174,168,255)" stroke="rgb(174,168,255)" stroke-width="1" opacity="1" d="M 332.5 459 Q 343.4 457.6 350.5 460 L 352.5 462 L 362.5 465 L 372 472 L 376 479 Q 379 477.8 378 481.5 L 384 493.5 L 385 511.5 L 382 517.5 L 382 521.5 L 375 534 L 372 535.5 Q 372.8 537.8 370.5 537 L 369 540 L 351.5 549 Q 343.2 551.7 330.5 550 L 313.5 543 L 306 537 L 304.5 534 Q 302.3 534.8 303 532.5 L 297 523.5 L 294 513.5 L 294 495.5 L 297 485.5 L 301 478.5 L 311.5 468 L 322.5 462 L 332.5 459 Z M 337 467 L 331 469 L 326 469 Q 316 474 309 483 Q 310 485 307 484 L 302 499 L 302 509 Q 305 512 304 519 L 310 528 L 317 534 L 326 539 L 338 540 L 339 541 L 353 539 L 357 536 Q 361 537 360 534 L 369 527 Q 368 524 371 525 Q 370 520 374 519 L 375 511 L 377 507 L 374 490 L 368 482 Q 369 479 366 480 L 365 477 Q 362 478 363 475 L 353 469 L 337 467 Z " /><path fill="rgb(174,168,255)" stroke="rgb(174,168,255)" stroke-width="1" opacity="1" d="M 358.5 479 L 364 481.5 Q 364.6 486.9 363 489 L 358.5 490 L 356 489 Q 357 486 354 487 L 354 482.5 L 358.5 479 Z " /><path fill="rgb(174,168,255)" stroke="rgb(174,168,255)" stroke-width="1" opacity="1" d="M 335.5 483 L 343.5 483 L 355 490.5 L 357 493.5 L 360 498.5 L 361 506.5 L 356.5 517 Q 354.3 516.3 355 518.5 L 346.5 525 L 335.5 526 L 326 522 Q 327.1 519.3 324.5 520 L 318 509.5 L 318 499.5 L 321 492 Q 323.7 493.1 323 490.5 L 328.5 486 L 335.5 483 Z M 338 491 Q 335 494 331 493 L 326 503 L 328 512 L 330 513 Q 332 512 331 515 L 338 517 L 347 515 Q 351 512 352 506 L 350 498 L 348 495 L 341 491 L 338 491 Z " /><path fill="rgb(255,255,255)" stroke="rgb(255,255,255)" stroke-width="1" opacity="1" d="M 0 0 L 1080 0 L 1080 1080 L 0 1080 L 0 0 Z M 333 459 L 323 462 L 312 468 L 301 479 L 297 486 L 294 496 L 294 514 L 297 524 L 303 533 Q 302 535 305 534 L 306 537 L 314 543 L 331 550 Q 343 552 352 549 L 369 540 L 371 537 Q 373 538 372 536 L 375 534 L 382 522 L 382 518 L 385 512 L 384 494 L 378 482 Q 379 478 376 479 L 372 472 L 363 465 L 353 462 L 351 460 Q 343 458 333 459 Z " /><path fill="rgb(255,255,255)" stroke="rgb(255,255,255)" stroke-width="1" opacity="1" d="M 336.5 467 L 352.5 469 L 363 475 Q 361.9 477.7 364.5 477 L 366 480 Q 368.7 478.9 368 481.5 L 374 489.5 L 377 506.5 L 375 510.5 L 374 518.5 Q 370.4 520.4 371 525 Q 368.3 523.9 369 526.5 L 360 534 Q 361.3 537.3 356.5 536 L 352.5 539 L 338.5 541 L 337.5 540 L 325.5 539 L 316.5 534 L 310 527.5 L 304 518.5 Q 304.7 511.8 302 508.5 L 302 498.5 L 307 484 Q 309.7 485.1 309 482.5 Q 315.5 474 325.5 469 L 330.5 469 L 336.5 467 Z M 359 479 L 354 483 L 354 487 Q 357 486 356 489 L 359 490 L 363 489 Q 365 487 364 482 L 359 479 Z M 336 483 L 329 486 L 323 491 Q 324 493 321 492 L 318 500 L 318 510 L 325 520 Q 327 519 326 522 L 336 526 L 347 525 L 355 519 Q 354 516 357 517 L 361 507 L 360 499 L 357 494 L 355 491 L 344 483 L 336 483 Z " /><path fill="rgb(255,255,255)" stroke="rgb(255,255,255)" stroke-width="1" opacity="1" d="M 337.5 491 L 340.5 491 L 348 494.5 L 350 497.5 L 352 505.5 Q 351.1 512.1 346.5 515 L 337.5 517 L 331 515 Q 332.1 512.3 329.5 513 L 328 511.5 L 326 502.5 L 331 493 Q 335.5 493.8 337.5 491 Z " /></svg>