<svg width="171" height="36" viewBox="0 0 171 36" fill="none" xmlns="http://www.w3.org/2000/svg">
<path fill-rule="evenodd" clip-rule="evenodd" d="M27.8333 18C27.8333 25.0877 22.0877 30.8333 15 30.8333C7.91234 30.8333 2.16666 25.0877 2.16666 18C2.16666 10.9123 7.91234 5.16666 15 5.16666C22.0877 5.16666 27.8333 10.9123 27.8333 18ZM30 18C30 26.2843 23.2843 33 15 33C6.71573 33 0 26.2843 0 18C0 9.71573 6.71573 3 15 3C23.2843 3 30 9.71573 30 18ZM23.2759 11.2759C23.2759 12.1329 22.5812 12.8276 21.7242 12.8276C20.8672 12.8276 20.1725 12.1329 20.1725 11.2759C20.1725 10.4189 20.8672 9.72418 21.7242 9.72418C22.5812 9.72418 23.2759 10.4189 23.2759 11.2759ZM10.4879 19.209C11.1556 21.7009 13.717 23.1797 16.2089 22.512C18.7008 21.8443 20.1796 19.2829 19.5119 16.791C18.8442 14.2991 16.2828 12.8203 13.7909 13.488C11.299 14.1557 9.82015 16.7171 10.4879 19.209ZM8.39503 19.7698C9.37244 23.4175 13.1219 25.5823 16.7696 24.6049C20.4174 23.6274 22.5821 19.878 21.6047 16.2302C20.6273 12.5825 16.8779 10.4177 13.2301 11.3952C9.58236 12.3726 7.41762 16.122 8.39503 19.7698Z" fill="url(#paint0_linear_2_8)"/>
<path d="M48.7727 26H42.321V8.54546H48.7642C50.5426 8.54546 52.0739 8.89489 53.358 9.59375C54.6477 10.2869 55.642 11.2869 56.3409 12.5938C57.0398 13.8949 57.3892 15.4517 57.3892 17.2642C57.3892 19.0824 57.0398 20.6449 56.3409 21.9517C55.6477 23.2585 54.6562 24.2614 53.3665 24.9602C52.0767 25.6534 50.5455 26 48.7727 26ZM46.5398 22.4034H48.6108C49.5881 22.4034 50.4148 22.2386 51.0909 21.9091C51.7727 21.5739 52.2869 21.0313 52.6335 20.2813C52.9858 19.5256 53.1619 18.5199 53.1619 17.2642C53.1619 16.0085 52.9858 15.0085 52.6335 14.2642C52.2812 13.5142 51.7614 12.9744 51.0739 12.6449C50.392 12.3097 49.5511 12.142 48.5511 12.142H46.5398V22.4034Z" fill="white"/>
<path d="M65.9631 26.2472C64.5881 26.2472 63.4063 25.9659 62.4176 25.4034C61.4347 24.8352 60.6761 24.0455 60.142 23.0341C59.6136 22.017 59.3494 20.8381 59.3494 19.4972C59.3494 18.1506 59.6136 16.9716 60.142 15.9602C60.6761 14.9432 61.4347 14.1534 62.4176 13.5909C63.4063 13.0227 64.5881 12.7386 65.9631 12.7386C67.3381 12.7386 68.517 13.0227 69.5 13.5909C70.4886 14.1534 71.2472 14.9432 71.7756 15.9602C72.3097 16.9716 72.5767 18.1506 72.5767 19.4972C72.5767 20.8381 72.3097 22.017 71.7756 23.0341C71.2472 24.0455 70.4886 24.8352 69.5 25.4034C68.517 25.9659 67.3381 26.2472 65.9631 26.2472ZM65.9886 23.1023C66.4886 23.1023 66.9119 22.9489 67.2585 22.642C67.6051 22.3352 67.8693 21.9091 68.0511 21.3636C68.2386 20.8182 68.3324 20.1875 68.3324 19.4716C68.3324 18.7443 68.2386 18.108 68.0511 17.5625C67.8693 17.017 67.6051 16.5909 67.2585 16.2841C66.9119 15.9773 66.4886 15.8239 65.9886 15.8239C65.4716 15.8239 65.0341 15.9773 64.6761 16.2841C64.3239 16.5909 64.054 17.017 63.8665 17.5625C63.6847 18.108 63.5938 18.7443 63.5938 19.4716C63.5938 20.1875 63.6847 20.8182 63.8665 21.3636C64.054 21.9091 64.3239 22.3352 64.6761 22.642C65.0341 22.9489 65.4716 23.1023 65.9886 23.1023Z" fill="white"/>
<path d="M78.8793 18.5341V26H74.7116V8.54546H78.7429V15.3125H78.8878C79.1832 14.5057 79.6662 13.875 80.3366 13.4205C81.0128 12.9659 81.8395 12.7386 82.8168 12.7386C83.7372 12.7386 84.5384 12.9432 85.2202 13.3523C85.902 13.7557 86.4304 14.3267 86.8054 15.0653C87.1861 15.804 87.3736 16.6676 87.3679 17.6563V26H83.2003V18.4744C83.206 17.7472 83.0241 17.179 82.6548 16.7699C82.2855 16.3608 81.7656 16.1563 81.0952 16.1563C80.6577 16.1563 80.2713 16.2528 79.9361 16.446C79.6065 16.6335 79.348 16.9034 79.1605 17.2557C78.9787 17.608 78.8849 18.0341 78.8793 18.5341Z" fill="white"/>
<path d="M93.6598 26.2216C92.8246 26.2216 92.0831 26.0824 91.4354 25.804C90.7933 25.5199 90.2848 25.0938 89.9098 24.5256C89.5405 23.9517 89.3558 23.233 89.3558 22.3693C89.3558 21.642 89.4837 21.0284 89.7393 20.5284C89.995 20.0284 90.3473 19.6222 90.7962 19.3097C91.245 18.9972 91.7621 18.7614 92.3473 18.6023C92.9325 18.4375 93.5575 18.3267 94.2223 18.2699C94.9666 18.2017 95.5661 18.1307 96.0206 18.0568C96.4751 17.9773 96.8047 17.8665 97.0092 17.7244C97.2195 17.5767 97.3246 17.3693 97.3246 17.1023V17.0597C97.3246 16.6222 97.174 16.2841 96.8729 16.0455C96.5717 15.8068 96.1655 15.6875 95.6541 15.6875C95.103 15.6875 94.6598 15.8068 94.3246 16.0455C93.9893 16.2841 93.7763 16.6136 93.6854 17.0341L89.8416 16.8977C89.9553 16.1023 90.2479 15.392 90.7195 14.767C91.1967 14.1364 91.8501 13.642 92.6797 13.2841C93.5149 12.9205 94.5178 12.7386 95.6882 12.7386C96.5234 12.7386 97.2933 12.8381 97.9979 13.0369C98.7024 13.2301 99.3161 13.5142 99.8388 13.8892C100.362 14.2585 100.765 14.7131 101.049 15.2528C101.339 15.7926 101.484 16.4091 101.484 17.1023V26H97.5632V24.1761H97.4609C97.228 24.6193 96.9297 24.9943 96.5661 25.3011C96.2081 25.608 95.7848 25.8381 95.2962 25.9915C94.8132 26.1449 94.2678 26.2216 93.6598 26.2216ZM94.9467 23.4943C95.3956 23.4943 95.799 23.4034 96.157 23.2216C96.5206 23.0398 96.8104 22.7898 97.0263 22.4716C97.2422 22.1477 97.3501 21.7727 97.3501 21.3466V20.1023C97.2308 20.1648 97.0859 20.2216 96.9155 20.2727C96.7507 20.3239 96.5689 20.3722 96.37 20.4176C96.1712 20.4631 95.9666 20.5028 95.7564 20.5369C95.5462 20.571 95.3445 20.6023 95.1513 20.6307C94.7592 20.6932 94.424 20.7898 94.1456 20.9205C93.8729 21.0511 93.6626 21.2216 93.5149 21.4318C93.3729 21.6364 93.3018 21.8807 93.3018 22.1648C93.3018 22.5966 93.4553 22.9261 93.7621 23.1534C94.0746 23.3807 94.4695 23.4943 94.9467 23.4943Z" fill="white"/>
<path d="M110.134 31.1818C108.89 31.1818 107.825 31.0085 106.938 30.6619C106.052 30.3153 105.356 29.8409 104.85 29.2386C104.344 28.6364 104.04 27.9545 103.938 27.1932L107.884 26.9716C107.958 27.2386 108.094 27.4716 108.293 27.6705C108.498 27.8693 108.762 28.0227 109.086 28.1307C109.415 28.2386 109.802 28.2926 110.245 28.2926C110.944 28.2926 111.521 28.1222 111.975 27.7813C112.435 27.446 112.665 26.858 112.665 26.017V23.7159H112.521C112.356 24.1193 112.106 24.4801 111.771 24.7983C111.435 25.1165 111.018 25.3665 110.518 25.5483C110.023 25.7301 109.455 25.821 108.813 25.821C107.859 25.821 106.984 25.5994 106.188 25.1563C105.398 24.7074 104.765 24.0142 104.288 23.0767C103.816 22.1335 103.58 20.9205 103.58 19.4375C103.58 17.9091 103.825 16.6506 104.313 15.6619C104.802 14.6676 105.441 13.9318 106.231 13.4545C107.026 12.9773 107.881 12.7386 108.796 12.7386C109.484 12.7386 110.072 12.858 110.56 13.0966C111.055 13.3295 111.461 13.6307 111.779 14C112.097 14.3693 112.339 14.7528 112.504 15.1506H112.623V12.9091H116.773V26.0511C116.773 27.1591 116.495 28.0938 115.938 28.8551C115.381 29.6165 114.603 30.1932 113.603 30.5852C112.603 30.983 111.447 31.1818 110.134 31.1818ZM110.262 22.7869C110.768 22.7869 111.2 22.6534 111.558 22.3864C111.915 22.1193 112.191 21.7358 112.384 21.2358C112.577 20.7358 112.674 20.1364 112.674 19.4375C112.674 18.7273 112.577 18.1165 112.384 17.6051C112.197 17.0881 111.921 16.6903 111.558 16.4119C111.2 16.1335 110.768 15.9943 110.262 15.9943C109.745 15.9943 109.308 16.1364 108.95 16.4205C108.592 16.7045 108.319 17.1051 108.131 17.6222C107.95 18.1335 107.859 18.7386 107.859 19.4375C107.859 20.1364 107.952 20.7358 108.14 21.2358C108.327 21.7358 108.597 22.1193 108.95 22.3864C109.308 22.6534 109.745 22.7869 110.262 22.7869Z" fill="white"/>
<path d="M119.43 26V12.9091H123.479V15.2955H123.615C123.854 14.4318 124.243 13.7898 124.783 13.3693C125.322 12.9432 125.95 12.7301 126.666 12.7301C126.859 12.7301 127.058 12.7443 127.263 12.7727C127.467 12.7955 127.658 12.8324 127.834 12.8835V16.5057C127.635 16.4375 127.374 16.3835 127.05 16.3438C126.732 16.304 126.447 16.2841 126.197 16.2841C125.703 16.2841 125.257 16.3949 124.859 16.6165C124.467 16.8324 124.158 17.1364 123.93 17.5284C123.709 17.9148 123.598 18.3693 123.598 18.892V26H119.43Z" fill="white"/>
<path d="M132.73 26.2216C131.895 26.2216 131.153 26.0824 130.506 25.804C129.864 25.5199 129.355 25.0938 128.98 24.5256C128.611 23.9517 128.426 23.233 128.426 22.3693C128.426 21.642 128.554 21.0284 128.81 20.5284C129.065 20.0284 129.418 19.6222 129.866 19.3097C130.315 18.9972 130.832 18.7614 131.418 18.6023C132.003 18.4375 132.628 18.3267 133.293 18.2699C134.037 18.2017 134.636 18.1307 135.091 18.0568C135.545 17.9773 135.875 17.8665 136.08 17.7244C136.29 17.5767 136.395 17.3693 136.395 17.1023V17.0597C136.395 16.6222 136.244 16.2841 135.943 16.0455C135.642 15.8068 135.236 15.6875 134.724 15.6875C134.173 15.6875 133.73 15.8068 133.395 16.0455C133.06 16.2841 132.847 16.6136 132.756 17.0341L128.912 16.8977C129.026 16.1023 129.318 15.392 129.79 14.767C130.267 14.1364 130.92 13.642 131.75 13.2841C132.585 12.9205 133.588 12.7386 134.759 12.7386C135.594 12.7386 136.364 12.8381 137.068 13.0369C137.773 13.2301 138.386 13.5142 138.909 13.8892C139.432 14.2585 139.835 14.7131 140.119 15.2528C140.409 15.7926 140.554 16.4091 140.554 17.1023V26H136.634V24.1761H136.531C136.298 24.6193 136 24.9943 135.636 25.3011C135.278 25.608 134.855 25.8381 134.366 25.9915C133.884 26.1449 133.338 26.2216 132.73 26.2216ZM134.017 23.4943C134.466 23.4943 134.869 23.4034 135.227 23.2216C135.591 23.0398 135.881 22.7898 136.097 22.4716C136.312 22.1477 136.42 21.7727 136.42 21.3466V20.1023C136.301 20.1648 136.156 20.2216 135.986 20.2727C135.821 20.3239 135.639 20.3722 135.44 20.4176C135.241 20.4631 135.037 20.5028 134.827 20.5369C134.616 20.571 134.415 20.6023 134.222 20.6307C133.83 20.6932 133.494 20.7898 133.216 20.9205C132.943 21.0511 132.733 21.2216 132.585 21.4318C132.443 21.6364 132.372 21.8807 132.372 22.1648C132.372 22.5966 132.526 22.9261 132.832 23.1534C133.145 23.3807 133.54 23.4943 134.017 23.4943Z" fill="white"/>
<path d="M143.102 26V12.9091H147.065V15.3125H147.21C147.483 14.517 147.943 13.8892 148.591 13.429C149.239 12.9688 150.011 12.7386 150.909 12.7386C151.818 12.7386 152.597 12.9716 153.244 13.4375C153.892 13.9034 154.304 14.5284 154.48 15.3125H154.616C154.861 14.5341 155.338 13.9119 156.048 13.446C156.759 12.9744 157.597 12.7386 158.562 12.7386C159.801 12.7386 160.807 13.1364 161.58 13.9318C162.352 14.7216 162.739 15.8068 162.739 17.1875V26H158.571V18.142C158.571 17.4886 158.403 16.9915 158.068 16.6506C157.733 16.304 157.298 16.1307 156.764 16.1307C156.19 16.1307 155.739 16.3182 155.409 16.6932C155.085 17.0625 154.923 17.5597 154.923 18.1847V26H150.918V18.0994C150.918 17.4915 150.753 17.0114 150.423 16.6591C150.094 16.3068 149.659 16.1307 149.119 16.1307C148.756 16.1307 148.435 16.2188 148.156 16.3949C147.878 16.5653 147.659 16.8097 147.5 17.1278C147.347 17.446 147.27 17.821 147.27 18.2528V26H143.102Z" fill="white"/>
<defs>
<linearGradient id="paint0_linear_2_8" x1="15" y1="3" x2="15" y2="33" gradientUnits="userSpaceOnUse">
<stop stop-color="#877EFF"/>
<stop offset="0.461458" stop-color="#685DFF"/>
<stop offset="1" stop-color="#3121FF"/>
</linearGradient>
</defs>
</svg>
